<svg width="26" height="24" viewBox="0 0 26 24" fill="none" xmlns="http://www.w3.org/2000/svg">
<path d="M19.112 0.608C20.2213 0.608 21.256 0.874666 22.216 1.408C23.1973 1.92 23.9867 2.69867 24.584 3.744C25.1813 4.78933 25.48 6.048 25.48 7.52C25.48 9.46133 25 11.4453 24.04 13.472C23.1013 15.4987 21.6933 17.408 19.816 19.2C17.9387 20.9707 15.6773 22.464 13.032 23.68C10.3653 22.464 8.09333 20.9707 6.216 19.2C4.33867 17.4293 2.92 15.5413 1.96 13.536C1.02133 11.5307 0.552 9.54667 0.552 7.584C0.552 6.09067 0.850667 4.82133 1.448 3.776C2.04533 2.73067 2.83467 1.94133 3.816 1.408C4.79733 0.874666 5.84267 0.608 6.952 0.608C8.31733 0.608 9.52267 1.06667 10.568 1.984C11.6347 2.88 12.456 4.128 13.032 5.728C13.5867 4.128 14.3973 2.88 15.464 1.984C16.552 1.06667 17.768 0.608 19.112 0.608Z" fill="#A95151"/>
</svg>
